<svg width="1200" height="900" viewBox="0 0 1200 900" fill="none" xmlns="http://www.w3.org/2000/svg">
  <rect width="1200" height="900" rx="48" fill="#FAF6EF"/>
  <rect x="92" y="92" width="1016" height="716" rx="40" fill="#FFFDF9" stroke="#D7D0C8"/>
  <rect x="154" y="156" width="244" height="588" rx="30" fill="#1A2433"/>
  <rect x="446" y="156" width="300" height="278" rx="28" fill="#F1D8CF"/>
  <rect x="778" y="156" width="268" height="170" rx="28" fill="#E4E7EE"/>
  <rect x="778" y="352" width="268" height="392" rx="28" fill="#FFF8F3" stroke="#E2D7CC"/>
  <rect x="210" y="228" width="132" height="16" rx="8" fill="#FAF6EF" fill-opacity="0.72"/>
  <rect x="210" y="266" width="88" height="14" rx="7" fill="#FAF6EF" fill-opacity="0.4"/>
  <rect x="498" y="216" width="196" height="22" rx="11" fill="#1A2433" fill-opacity="0.12"/>
  <rect x="498" y="262" width="156" height="18" rx="9" fill="#1A2433" fill-opacity="0.08"/>
  <path d="M838 640C889 548 942 481 992 430" stroke="#C65E3E" stroke-width="18" stroke-linecap="round"/>
  <circle cx="838" cy="640" r="28" fill="#1A2433"/>
  <circle cx="992" cy="430" r="28" fill="#C65E3E"/>
</svg>
