<svg width="1200" height="900" viewBox="0 0 1200 900" fill="none" xmlns="http://www.w3.org/2000/svg">
  <rect width="1200" height="900" rx="48" fill="#F6F0E8"/>
  <rect x="92" y="92" width="1016" height="716" rx="40" fill="#FFFDF8" stroke="#D8D1C9"/>
  <rect x="144" y="146" width="352" height="608" rx="30" fill="#111827"/>
  <rect x="548" y="146" width="510" height="286" rx="30" fill="#FFF8F2" stroke="#E0D6CA"/>
  <rect x="548" y="468" width="510" height="286" rx="30" fill="#F4DED2"/>
  <rect x="210" y="214" width="146" height="18" rx="9" fill="#F6F0E8" fill-opacity="0.84"/>
  <rect x="210" y="258" width="98" height="14" rx="7" fill="#F6F0E8" fill-opacity="0.42"/>
  <rect x="210" y="330" width="32" height="248" rx="16" fill="#E24E4E"/>
  <rect x="258" y="282" width="32" height="296" rx="16" fill="#F7B538"/>
  <rect x="306" y="352" width="32" height="226" rx="16" fill="#4CA3FF"/>
  <rect x="354" y="244" width="32" height="334" rx="16" fill="#49C17D"/>
  <rect x="402" y="392" width="32" height="186" rx="16" fill="#7C68FF"/>
  <path d="M618 358C668 278 718 258 772 310C826 362 878 366 932 312C964 280 998 270 1020 282" stroke="#111827" stroke-width="14" stroke-linecap="round"/>
  <circle cx="618" cy="358" r="16" fill="#E24E4E"/>
  <circle cx="772" cy="310" r="16" fill="#4CA3FF"/>
  <circle cx="932" cy="312" r="16" fill="#49C17D"/>
  <rect x="616" y="530" width="124" height="34" rx="17" fill="#111827"/>
  <rect x="762" y="530" width="124" height="34" rx="17" fill="#E24E4E"/>
  <rect x="908" y="530" width="96" height="34" rx="17" fill="#4CA3FF"/>
  <path d="M678 564V636" stroke="#111827" stroke-width="10" stroke-linecap="round"/>
  <path d="M824 564V636" stroke="#E24E4E" stroke-width="10" stroke-linecap="round"/>
  <path d="M956 564V636" stroke="#4CA3FF" stroke-width="10" stroke-linecap="round"/>
  <rect x="630" y="646" width="96" height="38" rx="19" fill="#FFF8F2" stroke="#D7CCC0"/>
  <rect x="776" y="646" width="96" height="38" rx="19" fill="#FFF8F2" stroke="#D7CCC0"/>
  <rect x="922" y="646" width="96" height="38" rx="19" fill="#FFF8F2" stroke="#D7CCC0"/>
</svg>
