<svg width="1200" height="900" viewBox="0 0 1200 900" fill="none" xmlns="http://www.w3.org/2000/svg">
  <rect width="1200" height="900" rx="48" fill="#F6F0E8"/>
  <rect x="92" y="92" width="1016" height="716" rx="40" fill="#FFFDF8" stroke="#D8D1C9"/>
  <rect x="160" y="156" width="358" height="588" rx="28" fill="#FFF8F2" stroke="#E0D6CA"/>
  <rect x="682" y="156" width="358" height="588" rx="28" fill="#FFF8F2" stroke="#E0D6CA"/>
  <rect x="544" y="222" width="112" height="456" rx="28" fill="#111827"/>
  <rect x="224" y="214" width="186" height="20" rx="10" fill="#111827" fill-opacity="0.14"/>
  <rect x="224" y="262" width="132" height="16" rx="8" fill="#111827" fill-opacity="0.08"/>
  <rect x="224" y="324" width="226" height="18" rx="9" fill="#111827" fill-opacity="0.1"/>
  <rect x="224" y="372" width="196" height="18" rx="9" fill="#111827" fill-opacity="0.08"/>
  <rect x="224" y="420" width="214" height="18" rx="9" fill="#111827" fill-opacity="0.08"/>
  <rect x="224" y="468" width="180" height="18" rx="9" fill="#111827" fill-opacity="0.08"/>
  <rect x="224" y="516" width="206" height="18" rx="9" fill="#E24E4E" fill-opacity="0.35"/>
  <rect x="224" y="564" width="154" height="18" rx="9" fill="#111827" fill-opacity="0.08"/>
  <rect x="224" y="612" width="176" height="18" rx="9" fill="#E24E4E" fill-opacity="0.28"/>
  <rect x="746" y="214" width="186" height="20" rx="10" fill="#111827" fill-opacity="0.14"/>
  <rect x="746" y="262" width="132" height="16" rx="8" fill="#111827" fill-opacity="0.08"/>
  <rect x="746" y="324" width="226" height="18" rx="9" fill="#111827" fill-opacity="0.1"/>
  <rect x="746" y="372" width="196" height="18" rx="9" fill="#111827" fill-opacity="0.08"/>
  <rect x="746" y="420" width="214" height="18" rx="9" fill="#111827" fill-opacity="0.08"/>
  <rect x="746" y="468" width="180" height="18" rx="9" fill="#111827" fill-opacity="0.08"/>
  <rect x="746" y="516" width="206" height="18" rx="9" fill="#E24E4E" fill-opacity="0.35"/>
  <rect x="746" y="564" width="154" height="18" rx="9" fill="#111827" fill-opacity="0.08"/>
  <rect x="746" y="612" width="176" height="18" rx="9" fill="#E24E4E" fill-opacity="0.28"/>
  <path d="M560 350C598 330 614 330 640 350" stroke="#E24E4E" stroke-width="14" stroke-linecap="round"/>
  <path d="M560 450C598 430 614 430 640 450" stroke="#E24E4E" stroke-width="14" stroke-linecap="round"/>
  <path d="M560 550C598 530 614 530 640 550" stroke="#E24E4E" stroke-width="14" stroke-linecap="round"/>
  <circle cx="600" cy="708" r="44" fill="#E24E4E"/>
  <circle cx="600" cy="708" r="24" fill="#FFF8F2"/>
</svg>
