<svg width="1320" height="860" viewBox="0 0 1320 860" fill="none" xmlns="http://www.w3.org/2000/svg">
  <defs>
    <linearGradient id="bg" x1="112" y1="82" x2="1162" y2="736" gradientUnits="userSpaceOnUse">
      <stop stop-color="#F8FBFF"/>
      <stop offset="1" stop-color="#ECF3FF"/>
    </linearGradient>
    <linearGradient id="headline" x1="222" y1="292" x2="756" y2="470" gradientUnits="userSpaceOnUse">
      <stop stop-color="#16294D"/>
      <stop offset="1" stop-color="#405AF6"/>
    </linearGradient>
    <linearGradient id="logoBlue" x1="0" y1="0" x2="1" y2="1">
      <stop stop-color="#2D66FF"/>
      <stop offset="1" stop-color="#54A2FF"/>
    </linearGradient>
    <filter id="panelShadow" x="120" y="112" width="1150" height="640" filterUnits="userSpaceOnUse" color-interpolation-filters="sRGB">
      <feDropShadow dx="0" dy="20" stdDeviation="26" flood-color="#738AC4" flood-opacity="0.16"/>
    </filter>
  </defs>

  <rect width="1320" height="860" rx="40" fill="url(#bg)"/>

  <g filter="url(#panelShadow)">
    <rect x="984" y="220" width="318" height="350" rx="18" fill="#FFFDFC" stroke="#D5DCE8"/>
  </g>

  <rect x="272" y="114" width="232" height="38" rx="11" fill="#FFFFFF" fill-opacity="0.58"/>
  <text x="372" y="145" fill="#1246D5" font-size="24" font-family="Georgia, serif" letter-spacing="0.06em">BRACU DIARY</text>
  <rect x="470" y="118" width="26" height="34" rx="5" fill="url(#logoBlue)"/>
  <path d="M476 145H492V129.5" stroke="#F7FBFF" stroke-width="3.1" stroke-linecap="round" stroke-linejoin="round"/>
  <text x="430" y="228" fill="#2B63F2" font-size="25" font-family="Arial, sans-serif" letter-spacing="0.04em">Your Academic Oasis</text>

  <text x="168" y="350" fill="url(#headline)" font-size="84" font-weight="700" font-family="Arial, sans-serif">Transform Your Academic</text>
  <text x="376" y="438" fill="#4A53F1" font-size="84" font-weight="700" font-family="Arial, sans-serif">Journey</text>
  <text x="230" y="522" fill="#4F5F7A" font-size="27" font-family="Arial, sans-serif">Experience the future of university life with an intuitive platform</text>
  <text x="212" y="578" fill="#4F5F7A" font-size="27" font-family="Arial, sans-serif">designed to help BRAC University students excel in their academic</text>
  <text x="476" y="634" fill="#4F5F7A" font-size="27" font-family="Arial, sans-serif">pursuits.</text>

  <g>
    <rect x="164" y="474" width="300" height="156" rx="16" fill="#FFFFFF" stroke="#D6DEE9"/>
    <rect x="192" y="504" width="40" height="40" rx="8" fill="#2F68F3"/>
    <path d="M202 520H222V536H202V520Z" stroke="#F6FBFF" stroke-width="2.3" stroke-linejoin="round"/>
    <text x="246" y="570" fill="#2C3446" font-size="18" font-weight="700" font-family="Arial, sans-serif">Smart Course Management</text>
    <text x="184" y="614" fill="#6D7B97" font-size="14" font-family="Arial, sans-serif">Organize courses with intelligent tracking and</text>
    <text x="184" y="638" fill="#6D7B97" font-size="14" font-family="Arial, sans-serif">deadline management</text>
  </g>

  <g>
    <rect x="482" y="474" width="300" height="156" rx="16" fill="#FFFFFF" stroke="#D6DEE9"/>
    <rect x="510" y="504" width="40" height="40" rx="8" fill="#8E46F7"/>
    <circle cx="523" cy="518" r="4" fill="#FFFFFF"/>
    <circle cx="537" cy="518" r="4" fill="#FFFFFF"/>
    <circle cx="530" cy="527" r="4" fill="#FFFFFF"/>
    <text x="564" y="570" fill="#2C3446" font-size="18" font-weight="700" font-family="Arial, sans-serif">Connect &amp; Collaborate</text>
    <text x="502" y="614" fill="#6D7B97" font-size="14" font-family="Arial, sans-serif">Build meaningful connections and share</text>
    <text x="502" y="638" fill="#6D7B97" font-size="14" font-family="Arial, sans-serif">resources with peers</text>
  </g>

  <g>
    <rect x="164" y="648" width="300" height="156" rx="16" fill="#FFFFFF" stroke="#D6DEE9"/>
    <rect x="192" y="678" width="40" height="40" rx="8" fill="#FF3F88"/>
    <circle cx="212" cy="698" r="6" stroke="#FFFFFF" stroke-width="2.2"/>
    <path d="M212 686V682M212 714V710M200 698H196M228 698H224" stroke="#FFFFFF" stroke-width="2" stroke-linecap="round"/>
    <text x="246" y="744" fill="#2C3446" font-size="18" font-weight="700" font-family="Arial, sans-serif">AI-Powered Insights</text>
    <text x="184" y="788" fill="#6D7B97" font-size="14" font-family="Arial, sans-serif">Get personalized recommendations and</text>
    <text x="184" y="812" fill="#6D7B97" font-size="14" font-family="Arial, sans-serif">intelligent assistance</text>
  </g>

  <g>
    <rect x="482" y="648" width="300" height="156" rx="16" fill="#FFFFFF" stroke="#D6DEE9"/>
    <rect x="510" y="678" width="40" height="40" rx="8" fill="#00B76F"/>
    <rect x="519" y="698" width="5" height="10" rx="2" fill="#FFFFFF"/>
    <rect x="526" y="690" width="5" height="18" rx="2" fill="#FFFFFF"/>
    <rect x="533" y="684" width="5" height="24" rx="2" fill="#FFFFFF"/>
    <text x="564" y="744" fill="#2C3446" font-size="18" font-weight="700" font-family="Arial, sans-serif">Track Progress</text>
    <text x="502" y="788" fill="#6D7B97" font-size="14" font-family="Arial, sans-serif">Monitor achievements and celebrate your</text>
    <text x="502" y="812" fill="#6D7B97" font-size="14" font-family="Arial, sans-serif">milestones</text>
  </g>

  <text x="1080" y="286" fill="#1B1F24" font-size="18" font-weight="700" font-family="Arial, sans-serif">Sign in to BRACU Diary</text>
  <text x="1044" y="312" fill="#8B8178" font-size="12" font-family="Arial, sans-serif">Welcome back! Please sign in to continue</text>
  <rect x="1016" y="324" width="258" height="28" rx="8" fill="#FFFFFF" stroke="#D8DFEA"/>
  <circle cx="1090" cy="338" r="8" fill="#F7FBFF"/>
  <text x="1106" y="343" fill="#4E5C74" font-size="14" font-family="Arial, sans-serif">Continue with Google</text>
  <rect x="1078" y="382" width="62" height="1" fill="#E7DFD7"/>
  <rect x="1150" y="382" width="62" height="1" fill="#E7DFD7"/>
  <text x="1174" y="388" fill="#9C928B" font-size="12" font-family="Arial, sans-serif">or</text>
  <text x="1016" y="430" fill="#1F2530" font-size="13" font-family="Arial, sans-serif">Email address</text>
  <rect x="1016" y="444" width="258" height="28" rx="8" fill="#FFFFFF" stroke="#D8DFEA"/>
  <text x="1028" y="462" fill="#B0B8C1" font-size="13" font-family="Arial, sans-serif">Enter your email address</text>
  <rect x="1016" y="494" width="258" height="28" rx="9" fill="#2F313C"/>
  <text x="1114" y="513" fill="#FFFFFF" font-size="16" font-weight="700" font-family="Arial, sans-serif">Continue</text>
  <path d="M1206 507L1216 513L1206 519" stroke="#FFFFFF" stroke-width="2.4" stroke-linecap="round" stroke-linejoin="round"/>
  <rect x="984" y="570" width="318" height="102" rx="0" fill="#F8F5F0"/>
  <text x="1102" y="590" fill="#8D9199" font-size="13" font-family="Arial, sans-serif">Don't have an account?</text>
  <text x="1222" y="590" fill="#1F2430" font-size="13" font-weight="700" font-family="Arial, sans-serif">Sign up</text>
  <text x="1116" y="636" fill="#8E8E92" font-size="12" font-family="Arial, sans-serif">Secured by Clerk</text>
  <text x="1090" y="664" fill="#F27A22" font-size="12" font-family="Arial, sans-serif">Development mode</text>
</svg>
