<svg width="1200" height="900" viewBox="0 0 1200 900" fill="none" xmlns="http://www.w3.org/2000/svg">
  <rect width="1200" height="900" rx="48" fill="#0A0D18"/>
  <rect x="92" y="92" width="1016" height="716" rx="40" fill="#101727" stroke="#26314A"/>
  <rect x="162" y="162" width="876" height="576" rx="30" fill="#0D1321" stroke="#2E3A56"/>
  <rect x="190" y="194" width="148" height="34" rx="17" fill="#FF6A52"/>
  <rect x="356" y="194" width="148" height="34" rx="17" fill="#F7B538"/>
  <rect x="522" y="194" width="148" height="34" rx="17" fill="#52D3D8"/>
  <rect x="688" y="194" width="148" height="34" rx="17" fill="#7B61FF"/>
  <rect x="854" y="194" width="148" height="34" rx="17" fill="#FF4D9A"/>
  <rect x="210" y="250" width="168" height="34" rx="17" fill="#F7B538"/>
  <rect x="396" y="250" width="168" height="34" rx="17" fill="#52D3D8"/>
  <rect x="582" y="250" width="168" height="34" rx="17" fill="#7B61FF"/>
  <rect x="768" y="250" width="168" height="34" rx="17" fill="#FF4D9A"/>
  <circle cx="804" cy="500" r="18" fill="#F4F7FB"/>
  <circle cx="804" cy="500" r="40" fill="url(#glow)" fill-opacity="0.75"/>
  <path d="M804 500L612 648" stroke="#F4F7FB" stroke-width="8" stroke-linecap="round"/>
  <path d="M612 648L392 540" stroke="#F4F7FB" stroke-width="8" stroke-linecap="round"/>
  <path d="M392 540L278 608" stroke="#F4F7FB" stroke-width="8" stroke-linecap="round"/>
  <rect x="456" y="664" width="286" height="24" rx="12" fill="#F4F7FB"/>
  <path d="M456 732H742" stroke="#FF4D9A" stroke-width="10" stroke-linecap="round" stroke-opacity="0.65"/>
  <path d="M392 540L612 648" stroke="#52D3D8" stroke-width="8" stroke-linecap="round" stroke-opacity="0.28"/>
  <path d="M612 648L804 500" stroke="#52D3D8" stroke-width="8" stroke-linecap="round" stroke-opacity="0.28"/>
  <defs>
    <radialGradient id="glow" cx="0" cy="0" r="1" gradientUnits="userSpaceOnUse" gradientTransform="translate(804 500) rotate(90) scale(90)">
      <stop stop-color="#52D3D8"/>
      <stop offset="1" stop-color="#52D3D8" stop-opacity="0"/>
    </radialGradient>
  </defs>
</svg>
