<svg width="1200" height="900" viewBox="0 0 1200 900" fill="none" xmlns="http://www.w3.org/2000/svg">
  <rect width="1200" height="900" rx="48" fill="#F6F0E8"/>
  <rect x="92" y="92" width="1016" height="716" rx="40" fill="#FFFDF8" stroke="#D8D1C9"/>
  <rect x="150" y="150" width="198" height="600" rx="28" fill="#111827"/>
  <rect x="392" y="150" width="304" height="262" rx="30" fill="#F4DED2"/>
  <rect x="724" y="150" width="326" height="180" rx="30" fill="#FFF8F2" stroke="#E2D7CC"/>
  <rect x="724" y="362" width="326" height="388" rx="30" fill="#121A2D"/>
  <rect x="392" y="446" width="304" height="304" rx="30" fill="#FFF8F2" stroke="#E2D7CC"/>
  <rect x="188" y="214" width="110" height="18" rx="9" fill="#F6F0E8" fill-opacity="0.82"/>
  <rect x="188" y="264" width="84" height="14" rx="7" fill="#F6F0E8" fill-opacity="0.48"/>
  <rect x="188" y="330" width="126" height="48" rx="16" fill="#E24E4E"/>
  <rect x="188" y="402" width="126" height="48" rx="16" fill="#F6F0E8" fill-opacity="0.1"/>
  <rect x="188" y="474" width="126" height="48" rx="16" fill="#F6F0E8" fill-opacity="0.1"/>
  <rect x="444" y="206" width="198" height="22" rx="11" fill="#111827" fill-opacity="0.16"/>
  <rect x="444" y="252" width="150" height="18" rx="9" fill="#111827" fill-opacity="0.08"/>
  <rect x="444" y="306" width="92" height="78" rx="22" fill="#FFF8F2" stroke="#E4D4C8"/>
  <rect x="548" y="306" width="92" height="78" rx="22" fill="#FFF8F2" stroke="#E4D4C8"/>
  <circle cx="784" cy="452" r="34" fill="#E24E4E"/>
  <rect x="836" y="430" width="158" height="22" rx="11" fill="#F6F0E8" fill-opacity="0.86"/>
  <rect x="836" y="474" width="122" height="18" rx="9" fill="#F6F0E8" fill-opacity="0.48"/>
  <rect x="786" y="560" width="218" height="122" rx="22" fill="#F6F0E8" fill-opacity="0.08" stroke="#2D3750"/>
  <path d="M438 520H650" stroke="#111827" stroke-width="16" stroke-linecap="round"/>
  <path d="M438 570H602" stroke="#111827" stroke-width="14" stroke-linecap="round" stroke-opacity="0.35"/>
  <path d="M438 620H628" stroke="#111827" stroke-width="14" stroke-linecap="round" stroke-opacity="0.35"/>
  <circle cx="632" cy="684" r="28" fill="#E24E4E"/>
</svg>
